<svg version="1.1" preserveAspectRatio="none" xmlns="http://www.w3.org/2000/svg" width="500" height="500" viewBox="0 0 500 500"><rect width="100%" height="100%" fill="#FFFFFF" fill-opacity="1"/><svg viewBox="430.8187 380 138.3624 240" width="191.97783" height="333" x="154.0111px" y="83.5px" xmlns="http://www.w3.org/2000/svg" xmlns:xlink="http://www.w3.org/1999/xlink" preserveAspectRatio="none"><defs></defs><style>.companyName {fill:#1A1245;fill-opacity:1;}.icon3-str {stroke:#C8B889;stroke-opacity:1;}.shape {fill:#EFE8E8;fill-opacity:1;}</style><g opacity="1" transform="rotate(0 430.8187 500)">
<svg width="138.3624" height="120" x="430.8187" y="500" version="1.1" preserveAspectRatio="none" viewBox="2.44 -32.76 38.28 33.2">
  <g transform="matrix(1 0 0 -1 0 -32.31999999999999)" class="shape"><path id="id-fAwcDUYEQ2" d="M2.44 0L2.44-32.40L8.32-32.40L8.32-18.16L14.76-32.40L20.40-32.40L14.20-17.96L21.04 0L15.16 0L9.76-14.72L8.32-12.28L8.32 0L2.44 0Z M31.96 0.44Q26.92 0.44 24.82-2.38Q22.72-5.20 22.72-10.36L22.72-10.36L22.72-21.92Q22.72-27.24 24.80-30Q26.88-32.76 31.96-32.76L31.96-32.76Q36.72-32.76 38.72-30.36Q40.72-27.96 40.72-23.44L40.72-23.44L40.72-20.72L35.04-20.72L35.04-23.52Q35.04-25.24 34.88-26.22Q34.72-27.20 34.06-27.82Q33.40-28.44 32-28.44L32-28.44Q30.56-28.44 29.84-27.78Q29.12-27.12 28.90-26.02Q28.68-24.92 28.68-23.16L28.68-23.16L28.68-9.12Q28.68-6.36 29.40-5.14Q30.12-3.92 32-3.92L32-3.92Q33.36-3.92 34.02-4.56Q34.68-5.20 34.86-6.26Q35.04-7.32 35.04-9.08L35.04-9.08L35.04-12L40.72-12L40.72-9.40Q40.72-4.72 38.76-2.14Q36.80 0.44 31.96 0.44L31.96 0.44Z"/></g>
</svg>
</g><g opacity="1" transform="rotate(0 430.8188 380)">
<svg width="138.3622" height="120" x="430.8188" y="380" version="1.1" preserveAspectRatio="none" viewBox="2.44 -32.76 38.28 33.2">
  <g transform="matrix(1 0 0 1 0 0)" class="companyName"><path id="id-D6z1nYkh2" d="M2.44 0L2.44-32.40L8.32-32.40L8.32-18.16L14.76-32.40L20.40-32.40L14.20-17.96L21.04 0L15.16 0L9.76-14.72L8.32-12.28L8.32 0L2.44 0Z M31.96 0.44Q26.92 0.44 24.82-2.38Q22.72-5.20 22.72-10.36L22.72-10.36L22.72-21.92Q22.72-27.24 24.80-30Q26.88-32.76 31.96-32.76L31.96-32.76Q36.72-32.76 38.72-30.36Q40.72-27.96 40.72-23.44L40.72-23.44L40.72-20.72L35.04-20.72L35.04-23.52Q35.04-25.24 34.88-26.22Q34.72-27.20 34.06-27.82Q33.40-28.44 32-28.44L32-28.44Q30.56-28.44 29.84-27.78Q29.12-27.12 28.90-26.02Q28.68-24.92 28.68-23.16L28.68-23.16L28.68-9.12Q28.68-6.36 29.40-5.14Q30.12-3.92 32-3.92L32-3.92Q33.36-3.92 34.02-4.56Q34.68-5.20 34.86-6.26Q35.04-7.32 35.04-9.08L35.04-9.08L35.04-12L40.72-12L40.72-9.40Q40.72-4.72 38.76-2.14Q36.80 0.44 31.96 0.44L31.96 0.44Z"/></g>
</svg>
</g></svg></svg>